<svg width="23" height="23" viewBox="0 0 23 23" fill="none" xmlns="http://www.w3.org/2000/svg">
<path d="M11.3743 5.87154C9.32303 5.87154 7.27253 5.63529 5.28203 5.16879C5.08028 5.12154 4.95503 4.92054 5.00228 4.71804C5.04953 4.51704 5.24603 4.39179 5.45378 4.43829C9.79853 5.45679 14.4163 5.32854 18.7123 4.06479C18.9148 4.00779 19.1203 4.11954 19.178 4.31829C19.2365 4.51779 19.1233 4.72554 18.9245 4.78404C16.4713 5.50554 13.931 5.87154 11.3743 5.87154Z" fill="#263238"/>
<path d="M18.8181 18.7715C18.7828 18.7715 18.7476 18.7662 18.7116 18.7557C13.9423 17.3525 8.80631 17.3525 4.03706 18.7557C3.83531 18.812 3.62906 18.701 3.57131 18.5023C3.51281 18.3028 3.62606 18.095 3.82481 18.0365C8.73356 16.592 14.0158 16.592 18.9246 18.0365C19.1233 18.095 19.2366 18.3028 19.1781 18.5023C19.1301 18.6665 18.9801 18.7715 18.8181 18.7715Z" fill="#263238"/>
<path d="M10.916 21.9792C10.8425 21.9792 10.7697 21.9582 10.7045 21.914C7.20425 19.5252 5.11475 15.5975 5.11475 11.4072C5.11475 8.01195 6.4505 4.8162 8.8775 2.4087C9.02525 2.26095 9.263 2.26395 9.40775 2.4102C9.554 2.5572 9.5525 2.79495 9.40625 2.94045C7.1225 5.2062 5.86475 8.21295 5.86475 11.4072C5.86475 15.3492 7.832 19.046 11.1282 21.2945C11.2992 21.4107 11.3427 21.6447 11.2265 21.8157C11.153 21.9222 11.0352 21.9792 10.916 21.9792Z" fill="#263238"/>
<path d="M11.8647 21.9792C11.7455 21.9792 11.6277 21.9222 11.555 21.8157C11.4387 21.644 11.4822 21.4107 11.6532 21.2945C14.9495 19.046 16.9167 15.3492 16.9167 11.4072C16.9167 7.46524 14.9495 3.76849 11.6532 1.51999C11.4822 1.40374 11.4387 1.16974 11.555 0.998744C11.672 0.827744 11.906 0.785744 12.0762 0.900494C15.5765 3.28924 17.666 7.21699 17.666 11.4072C17.666 15.5975 15.5765 19.5252 12.0762 21.914C12.0117 21.9575 11.9382 21.9792 11.8647 21.9792Z" fill="#263238"/>
<path d="M11.3743 21.8675C11.1673 21.8675 10.9993 21.6995 10.9993 21.4925V1.32202C10.9993 1.11502 11.1673 0.947021 11.3743 0.947021C11.5813 0.947021 11.7493 1.11502 11.7493 1.32202V21.4925C11.7493 21.7003 11.5813 21.8675 11.3743 21.8675Z" fill="#263238"/>
<path d="M21.8346 11.7822H2.41406C2.20706 11.7822 2.03906 11.6142 2.03906 11.4072C2.03906 11.2002 2.20706 11.0322 2.41406 11.0322H21.8353C22.0423 11.0322 22.2103 11.2002 22.2103 11.4072C22.2103 11.6142 22.0423 11.7822 21.8346 11.7822Z" fill="#263238"/>
<path d="M11.3743 22.2822C5.37802 22.2822 0.499268 17.4035 0.499268 11.4072C0.499268 8.76648 1.45777 6.21798 3.19927 4.23348C3.33577 4.07748 3.57202 4.06248 3.72877 4.19898C3.88402 4.33548 3.89902 4.57248 3.76327 4.72848C2.14252 6.57573 1.24927 8.94798 1.24927 11.4072C1.24927 16.9902 5.79127 21.5322 11.3743 21.5322C16.9573 21.5322 21.4993 16.9902 21.4993 11.4072C21.4993 5.82423 16.9573 1.28223 11.3743 1.28223C9.06577 1.28223 6.89227 2.03823 5.09002 3.46848C4.92802 3.59748 4.69252 3.57123 4.56352 3.40773C4.43452 3.24573 4.46152 3.01023 4.62427 2.88123C6.56002 1.34448 8.89402 0.532227 11.3743 0.532227C17.3705 0.532227 22.2493 5.41098 22.2493 11.4072C22.2493 17.4035 17.3705 22.2822 11.3743 22.2822Z" fill="#263238"/>
</svg>
