<svg width="18" height="17" viewBox="0 0 18 17" fill="none" xmlns="http://www.w3.org/2000/svg">
<path d="M14.8905 16.25L11.9739 13.375C11.4878 13.5278 10.9947 13.6424 10.4947 13.7188C9.99471 13.7951 9.48777 13.8333 8.97388 13.8333C7.11277 13.8333 5.41138 13.3333 3.86971 12.3333C2.32804 11.3333 1.11971 10.0139 0.24471 8.375C0.175266 8.25 0.123183 8.12153 0.0884603 7.98958C0.0537381 7.85764 0.036377 7.72222 0.036377 7.58333C0.036377 7.44445 0.0537381 7.30903 0.0884603 7.17708C0.123183 7.04514 0.175266 6.91667 0.24471 6.79167C0.550266 6.25 0.876655 5.72222 1.22388 5.20833C1.5711 4.69444 1.97388 4.23611 2.43221 3.83333L0.703044 2.08333C0.550266 1.93056 0.473877 1.73958 0.473877 1.51042C0.473877 1.28125 0.55721 1.08333 0.723877 0.916667C0.876655 0.763889 1.0711 0.6875 1.30721 0.6875C1.54332 0.6875 1.73777 0.763889 1.89054 0.916667L16.0572 15.0833C16.21 15.2361 16.2899 15.4271 16.2968 15.6562C16.3037 15.8854 16.2239 16.0833 16.0572 16.25C15.9044 16.4028 15.71 16.4792 15.4739 16.4792C15.2378 16.4792 15.0433 16.4028 14.8905 16.25ZM8.97388 11.3333C9.12666 11.3333 9.27249 11.3264 9.41138 11.3125C9.55027 11.2986 9.68916 11.2708 9.82804 11.2292L5.32804 6.72917C5.28638 6.86806 5.2586 7.00694 5.24471 7.14583C5.23082 7.28472 5.22388 7.43056 5.22388 7.58333C5.22388 8.625 5.58846 9.51042 6.31763 10.2396C7.04679 10.9688 7.93221 11.3333 8.97388 11.3333ZM8.97388 1.33333C10.835 1.33333 12.5399 1.83681 14.0885 2.84375C15.6371 3.85069 16.8489 5.17361 17.7239 6.8125C17.7933 6.92361 17.8454 7.04514 17.8801 7.17708C17.9149 7.30903 17.9322 7.44445 17.9322 7.58333C17.9322 7.72222 17.9183 7.85764 17.8905 7.98958C17.8628 8.12153 17.8142 8.24306 17.7447 8.35417C17.4808 8.86806 17.1857 9.35417 16.8593 9.8125C16.5329 10.2708 16.1683 10.7014 15.7655 11.1042C15.5711 11.2986 15.3419 11.3889 15.078 11.375C14.8142 11.3611 14.585 11.2569 14.3905 11.0625L12.7239 9.39583C12.6267 9.29861 12.5642 9.18403 12.5364 9.05208C12.5086 8.92014 12.5155 8.78472 12.5572 8.64583C12.6128 8.46528 12.6544 8.29167 12.6822 8.125C12.71 7.95833 12.7239 7.77778 12.7239 7.58333C12.7239 6.54167 12.3593 5.65625 11.6301 4.92708C10.901 4.19792 10.0155 3.83333 8.97388 3.83333C8.77943 3.83333 8.59888 3.84722 8.43221 3.875C8.26554 3.90278 8.09193 3.94444 7.91138 4C7.77249 4.04167 7.6336 4.04861 7.49471 4.02083C7.35582 3.99306 7.23777 3.93056 7.14054 3.83333L6.45304 3.14583C6.18916 2.88194 6.10235 2.57639 6.19263 2.22917C6.28291 1.88194 6.50166 1.65972 6.84888 1.5625C7.1961 1.49306 7.54679 1.4375 7.90096 1.39583C8.25513 1.35417 8.61277 1.33333 8.97388 1.33333ZM10.6197 6.04167C10.7725 6.22222 10.901 6.42014 11.0051 6.63542C11.1093 6.8507 11.1753 7.07639 11.203 7.3125C11.2169 7.42361 11.1753 7.5 11.078 7.54167C10.9808 7.58333 10.8905 7.5625 10.8072 7.47917L9.09888 5.77083C9.01554 5.6875 8.99818 5.59722 9.04679 5.5C9.09541 5.40278 9.17527 5.35417 9.28638 5.35417C9.55027 5.38194 9.79332 5.45486 10.0155 5.57292C10.2378 5.69097 10.4392 5.84722 10.6197 6.04167Z" fill="#1C1B1F"/>
</svg>
